<svg version="1.1" id="Layer_1" xmlns="http://www.w3.org/2000/svg" xmlns:xlink="http://www.w3.org/1999/xlink" x="0px" y="0px" width="500px" height="500px" viewBox="0 0 500 500" enable-background="new 0 0 500 500" xml:space="preserve"> <g> 	<defs> 		<rect id="SVGID_1_" width="500" height="500"></rect> 	</defs> 	<clipPath id="SVGID_2_"> 		<use xlink:href="#SVGID_1_" overflow="visible"></use> 	</clipPath> 	<path clip-path="url(#SVGID_2_)" fill="#2C3C5B" d="M483.596,84.908c-0.052-0.355-0.091-0.691-0.193-1.034 		c-0.143-0.457-0.349-0.852-0.595-1.27c-0.104-0.194-0.141-0.426-0.283-0.613c-0.077-0.11-0.194-0.149-0.259-0.245 		c-0.103-0.11-0.142-0.259-0.245-0.375l-59.957-63.114c-0.194-0.194-0.452-0.283-0.658-0.451c-0.207-0.162-0.337-0.388-0.543-0.536 		c-0.154-0.085-0.31-0.085-0.438-0.143c-0.374-0.199-0.749-0.335-1.175-0.444c-0.413-0.123-0.813-0.233-1.238-0.259 		c-0.143-0.013-0.284-0.103-0.452-0.103H101.442c-0.155,0-0.297,0.09-0.452,0.103c-0.439,0.026-0.839,0.136-1.264,0.259 		c-0.388,0.122-0.75,0.231-1.111,0.432c-0.155,0.058-0.322,0.07-0.465,0.155c-0.245,0.148-0.386,0.387-0.593,0.555 		c-0.193,0.174-0.426,0.252-0.607,0.432L36.986,81.371c-0.097,0.103-0.129,0.239-0.225,0.348c-0.091,0.11-0.214,0.162-0.298,0.272 		c-0.141,0.206-0.18,0.458-0.303,0.677c-0.213,0.381-0.413,0.749-0.549,1.168c-0.115,0.381-0.168,0.755-0.219,1.149 		c-0.026,0.245-0.142,0.478-0.142,0.736v332.799c0,1.789,0.748,3.479,2.065,4.673c0,0,64.019,57.711,66.889,60.17 		c0.839,0.406,1.731,0.69,2.686,0.69h305.234c0.942,0,1.833-0.284,2.672-0.69c2.87-2.459,5.74-4.917,8.61-7.376l58.279-52.794 		c1.316-1.194,2.064-2.884,2.064-4.673V85.721C483.75,85.437,483.634,85.179,483.596,84.908 M47.706,98.151l27.171,20.233v131.796 		v131.816l-27.171,20.229V98.151z M100.41,32.76l19.891,32.114L80.389,106.89l-29.52-21.982L100.41,32.76z M468.131,84.894 		l-29.52,21.996L398.7,64.874l19.904-32.114L468.131,84.894z M431.68,250.181v122.536l-23.002-17.123V250.181V144.774l23.002-17.128 		V250.181z M259.5,428.401H139.378l12.25-19.769H259.5h107.872l12.25,19.769H259.5z M87.32,250.181V127.646l22.99,17.116v105.418 		v105.413l-22.99,17.136V250.181z M259.5,71.974h120.122l-12.25,19.762H259.5H151.628l-12.25-19.762H259.5z M396.234,250.181v96.146 		l-14.005-10.43v-85.716v-85.695l14.005-10.436V250.181z M259.5,396.073H159.399l13.089-21.097H259.5h87.013l13.076,21.097H259.5z 		 M122.766,250.181v-96.144l14.018,10.448v85.695v85.716l-14.018,10.43V250.181z M259.5,104.289h100.089l-13.076,21.118H259.5 		h-87.012l-13.089-21.118H259.5z M347.171,362.416H259.5h-87.67l-22.59-25.731v-86.504v-86.496l22.59-25.726h87.67h87.671 		l22.615,25.726v86.496v86.504L347.171,362.416z M376.872,152.842l-19.168-21.808l13.515-21.827l22.55,31.057L376.872,152.842z 		 M161.296,131.034l-19.168,21.808l-16.896-12.578l22.536-31.057L161.296,131.034z M142.128,347.526l19.168,21.814l-13.528,21.82 		l-22.536-31.063L142.128,347.526z M357.704,369.341l19.168-21.814l16.896,12.572l-22.55,31.063L357.704,369.341z M403.785,132.809 		l-25.454-35.078l13.553-21.879l36.62,38.55L403.785,132.809z M140.669,97.731l-25.454,35.078l-24.732-18.42l36.62-38.537 		L140.669,97.731z M115.215,367.566l25.454,35.064l-13.566,21.879l-36.62-38.55L115.215,367.566z M378.331,402.631l25.441-35.077 		l24.731,18.406l-36.62,38.55L378.331,402.631z M387.405,59.42H259.5H131.595l-18.923-30.539h293.656L387.405,59.42z 		 M80.389,393.479l39.912,42.01l-18.252,29.456l-53.065-48.069L80.389,393.479z M131.595,440.961H259.5h127.905l18.923,30.541 		H112.659L131.595,440.961z M398.7,435.488l39.911-42.01l31.406,23.409l-53.065,48.069L398.7,435.488z M444.122,381.997V250.181 		V118.384l27.186-20.246v304.087L444.122,381.997z"></path> 	<line clip-path="url(#SVGID_2_)" fill="#2C3C5B" x1="104.204" y1="483.363" x2="108.291" y2="485.958"></line> </g> </svg>