<svg version="1.1" id="Layer_1" xmlns="http://www.w3.org/2000/svg" xmlns:xlink="http://www.w3.org/1999/xlink" x="0px" y="0px" width="500px" height="500px" viewBox="0 0 500 500" enable-background="new 0 0 500 500" xml:space="preserve"> <g> 	<defs> 		<rect id="SVGID_1_" width="500" height="500"></rect> 	</defs> 	<clipPath id="SVGID_2_"> 		<use xlink:href="#SVGID_1_" overflow="visible"></use> 	</clipPath> 	<path clip-path="url(#SVGID_2_)" fill="#2C3C5B" d="M314.25,483H183.698c-47.453,0-88.852-24.273-116.869-58.776 		c-21.79-26.835-35.881-59.067-35.881-95.976V168.75c0-33.917,14.056-67.254,32.759-92.601C91.523,38.45,133.253,16,183.698,16 		H314.25c45.11,0,84.653,21.556,112.615,52.651C451.194,95.707,467,129.499,467,168.75v161.5c0,36.908-15.092,69.758-36.882,96.162 		C402.102,460.36,361.703,483,314.25,483 M177.908,144.336l57.23-22.553l-49.06-31.015L177.908,144.336z M399.05,178.505 		l-59.185-14.577l29.593,70.939l11.108-21.166L399.05,178.505z M263.828,121.783l57.222,22.553l-8.177-53.568L263.828,121.783z 		 M378.348,281.805l-8.89-16.929l-29.593,70.947l59.185-14.571L378.348,281.805z M274.952,34.989c0.688,0.652,1.38,1.304,2.06,1.956 		c1.374,1.296,2.746,2.594,4.12,3.863c0.728,0.673,1.456,1.339,2.177,1.997c1.395,1.284,2.781,2.538,4.162,3.773 		c0.596,0.534,1.206,1.081,1.803,1.608c1.921,1.707,3.827,3.386,5.666,4.973c0.222,0.195,0.443,0.375,0.658,0.562 		c1.65,1.429,3.253,2.795,4.807,4.099c0.596,0.499,1.157,0.978,1.741,1.463c1.144,0.965,2.274,1.907,3.355,2.795 		c0.569,0.472,1.131,0.93,1.672,1.38c1.047,0.86,2.046,1.672,3.01,2.449c0.444,0.354,0.901,0.728,1.324,1.067 		c1.151,0.923,2.22,1.783,3.197,2.559c0.125,0.098,0.277,0.216,0.389,0.313c0.014-0.035,0.027-0.063,0.042-0.097 		c0.443-1.061,0.915-2.227,1.428-3.468c0.069-0.173,0.152-0.389,0.229-0.576c0.423-1.033,0.858-2.129,1.317-3.273 		c0.173-0.444,0.36-0.916,0.534-1.367c0.388-0.97,0.77-1.962,1.165-2.989c0.208-0.533,0.416-1.074,0.631-1.622 		c0.396-1.047,0.805-2.123,1.213-3.218c0.202-0.534,0.403-1.075,0.611-1.623c0.472-1.283,0.95-2.614,1.436-3.946 		c0.139-0.402,0.277-0.777,0.423-1.172c0.624-1.775,1.256-3.578,1.88-5.416c0.063-0.188,0.125-0.396,0.193-0.589 		c0.542-1.603,1.075-3.219,1.596-4.849c0.181-0.555,0.354-1.116,0.534-1.678c0.407-1.297,0.812-2.6,1.206-3.911 		c0.098-0.305,0.181-0.611,0.278-0.923h-60.843c0.271,0.278,0.548,0.541,0.825,0.811C271.505,31.64,273.225,33.332,274.952,34.989 		 M170.565,33.762c0.214,0.659,0.415,1.317,0.63,1.976c0.458,1.437,0.93,2.865,1.401,4.279c0.132,0.375,0.257,0.77,0.389,1.145 		c0.61,1.789,1.22,3.551,1.838,5.284c0.173,0.499,0.346,0.965,0.527,1.45c0.436,1.235,0.873,2.448,1.317,3.634 		c0.235,0.624,0.458,1.228,0.687,1.831c0.381,1.033,0.756,2.032,1.13,3.009c0.229,0.603,0.465,1.2,0.687,1.784 		c0.381,0.97,0.742,1.899,1.103,2.821c0.194,0.499,0.395,1.013,0.589,1.492c0.423,1.068,0.832,2.087,1.227,3.058 		c0.098,0.257,0.222,0.548,0.32,0.798c0.506,1.241,0.984,2.413,1.428,3.474c0.007,0.021,0.014,0.034,0.02,0.049 		c0.112-0.091,0.243-0.209,0.354-0.285c1.013-0.798,2.109-1.671,3.295-2.628c0.354-0.292,0.756-0.617,1.13-0.916 		c1.027-0.832,2.115-1.72,3.253-2.649c0.471-0.395,0.964-0.798,1.463-1.207c1.158-0.957,2.372-1.976,3.621-3.016 		c0.498-0.424,0.991-0.833,1.511-1.262c1.7-1.436,3.454-2.927,5.264-4.501c0.076-0.063,0.139-0.111,0.222-0.173 		c1.865-1.617,3.793-3.323,5.749-5.056c0.555-0.494,1.123-1.006,1.685-1.506c1.415-1.262,2.837-2.545,4.272-3.863 		c0.707-0.644,1.415-1.303,2.122-1.962c1.388-1.277,2.761-2.581,4.148-3.884c0.686-0.651,1.366-1.297,2.053-1.949 		c1.726-1.657,3.453-3.349,5.159-5.049c0.278-0.27,0.549-0.533,0.825-0.811h-60.835c0.112,0.361,0.215,0.714,0.32,1.068 		C169.822,31.39,170.197,32.576,170.565,33.762 M224.104,52.633c-2.254,2.06-4.474,4.064-6.644,5.998 		c-0.333,0.285-0.639,0.548-0.964,0.832c-1.901,1.672-3.732,3.274-5.541,4.827c-0.611,0.535-1.214,1.055-1.825,1.568 		c-1.705,1.456-3.37,2.857-4.951,4.182c-0.305,0.249-0.632,0.527-0.929,0.777c-1.81,1.505-3.488,2.884-5.105,4.195 		c-0.555,0.444-1.04,0.846-1.567,1.269c-1.179,0.943-2.267,1.824-3.294,2.649c-0.215,0.167-0.499,0.396-0.707,0.561l56.903,35.974 		l33.573-21.228l23.323-14.746c-0.224-0.172-0.514-0.408-0.735-0.589c-1.02-0.817-2.109-1.685-3.273-2.621 		c-0.514-0.423-1.014-0.825-1.562-1.262c-1.608-1.318-3.3-2.705-5.125-4.224c-0.276-0.221-0.568-0.471-0.846-0.707 		c-1.608-1.338-3.28-2.759-5.015-4.238c-0.603-0.512-1.206-1.025-1.823-1.56c-1.803-1.553-3.648-3.155-5.542-4.827 		c-0.318-0.284-0.631-0.547-0.957-0.832c-2.17-1.934-4.396-3.938-6.644-5.998c-0.576-0.527-1.158-1.069-1.74-1.602 		c-1.88-1.742-3.766-3.517-5.666-5.333c-0.499-0.479-0.991-0.937-1.498-1.416c-2.303-2.225-4.604-4.5-6.9-6.803 		c-0.451-0.471-0.901-0.936-1.359-1.407c-1.874-1.908-3.724-3.842-5.548-5.798c-0.361-0.389-0.742-0.757-1.096-1.145h-3.134 		c-0.355,0.388-0.736,0.756-1.097,1.145c-1.831,1.956-3.675,3.89-5.555,5.798c-0.457,0.471-0.908,0.936-1.366,1.407 		c-2.281,2.303-4.577,4.571-6.887,6.79c-0.513,0.485-1.005,0.956-1.512,1.442c-1.899,1.818-3.786,3.578-5.665,5.32 		C225.248,51.572,224.68,52.106,224.104,52.633 M361.891,249.875l-37.63-90.219l-74.781-29.475l-74.782,29.475l-37.63,90.219 		l37.63,90.213l74.782,29.481l74.781-29.481L361.891,249.875z M159.086,163.928l-59.17,14.577l24.078,45.877l5.507,10.485 		L159.086,163.928z M159.086,335.823l-29.585-70.947l-29.585,56.376L159.086,335.823z M321.05,355.415l-57.222,22.553l49.045,31.008 		L321.05,355.415z M235.138,377.968l-57.23-22.56l8.17,53.567L235.138,377.968z M224.013,464.775 		c-0.7-0.667-1.386-1.318-2.087-1.971c-1.374-1.31-2.739-2.593-4.106-3.855c-0.728-0.673-1.456-1.346-2.177-2.011 		c-1.38-1.27-2.761-2.504-4.12-3.725c-0.624-0.555-1.248-1.13-1.866-1.664c-1.914-1.713-3.821-3.377-5.665-4.973 		c-0.181-0.152-0.354-0.306-0.534-0.465c-1.679-1.442-3.308-2.837-4.883-4.168c-0.624-0.527-1.228-1.02-1.83-1.525 		c-1.103-0.923-2.185-1.825-3.225-2.684c-0.617-0.514-1.242-1.027-1.831-1.52c-0.957-0.776-1.873-1.526-2.753-2.239 		c-0.528-0.424-1.075-0.867-1.568-1.263c-0.839-0.68-1.588-1.276-2.337-1.872c-0.382-0.306-0.819-0.652-1.173-0.93 		c-0.006,0.007-0.006,0.007-0.006,0.014c-0.888,2.129-1.928,4.667-3.037,7.483c-0.174,0.409-0.347,0.86-0.52,1.297 		c-0.375,0.964-0.764,1.948-1.159,2.975c-0.228,0.59-0.458,1.2-0.694,1.811c-0.353,0.929-0.72,1.894-1.081,2.871 		c-0.257,0.673-0.506,1.339-0.756,2.024c-0.382,1.013-0.749,2.053-1.124,3.094c-0.249,0.693-0.499,1.366-0.742,2.053 		c-0.437,1.248-0.881,2.511-1.318,3.786c-0.291,0.846-0.575,1.692-0.867,2.553c-0.471,1.4-0.936,2.802-1.393,4.216 		c-0.242,0.756-0.472,1.52-0.714,2.274c-0.334,1.09-0.673,2.164-1.006,3.254c-0.097,0.332-0.194,0.672-0.292,1.005h60.835 		c-0.263-0.256-0.52-0.506-0.776-0.77C227.481,468.139,225.754,466.446,224.013,464.775 M453.775,249.875l-44.427-63.477 		l-14.37,27.366l-18.953,36.111l33.323,63.478l8.508-12.157L453.775,249.875z M328.498,466.328c-0.235-0.748-0.457-1.491-0.7-2.231 		c-0.458-1.431-0.93-2.845-1.408-4.253c-0.298-0.901-0.603-1.789-0.908-2.677c-0.409-1.2-0.825-2.399-1.234-3.564 		c-0.291-0.806-0.576-1.588-0.853-2.372c-0.34-0.922-0.674-1.845-0.999-2.739c-0.284-0.777-0.568-1.539-0.854-2.295 		c-0.333-0.874-0.659-1.734-0.978-2.573c-0.271-0.708-0.541-1.408-0.798-2.088c-0.326-0.84-0.645-1.658-0.963-2.455 		c-0.243-0.617-0.487-1.255-0.729-1.852c-0.354-0.909-0.707-1.762-1.047-2.607c-0.159-0.402-0.333-0.832-0.492-1.214 		c-0.485-1.193-0.937-2.289-1.359-3.302c-0.028-0.068-0.049-0.131-0.076-0.2c-1.082,0.853-2.324,1.845-3.627,2.891 		c-0.396,0.326-0.839,0.688-1.263,1.027c-0.957,0.776-1.956,1.588-3.002,2.448c-0.563,0.458-1.151,0.942-1.742,1.429 		c-1.054,0.873-2.156,1.796-3.28,2.732c-0.596,0.5-1.179,0.991-1.803,1.512c-1.588,1.346-3.238,2.753-4.93,4.217 		c-0.174,0.139-0.319,0.271-0.492,0.409c-1.846,1.603-3.759,3.28-5.694,5c-0.576,0.514-1.172,1.048-1.755,1.574 		c-1.408,1.256-2.822,2.531-4.244,3.835c-0.687,0.632-1.395,1.282-2.096,1.929c-1.393,1.296-2.794,2.607-4.209,3.946 		c-0.658,0.63-1.331,1.262-1.997,1.906c-1.748,1.679-3.496,3.378-5.229,5.111c-0.257,0.25-0.514,0.493-0.771,0.749h60.843 		c-0.098-0.333-0.195-0.665-0.291-0.999C329.185,468.52,328.838,467.424,328.498,466.328 M274.854,447.117 		c2.262-2.066,4.494-4.091,6.679-6.02c0.257-0.235,0.507-0.45,0.77-0.679c1.977-1.741,3.905-3.42,5.777-5.021 		c0.562-0.493,1.104-0.958,1.657-1.43c1.838-1.56,3.614-3.065,5.307-4.48c0.193-0.159,0.395-0.333,0.589-0.484 		c1.865-1.561,3.599-2.982,5.25-4.328c0.479-0.389,0.915-0.742,1.38-1.116c1.2-0.965,2.31-1.859,3.356-2.685 		c0.229-0.193,0.527-0.43,0.757-0.609l-56.896-35.973l-56.903,35.973c0.229,0.18,0.519,0.408,0.756,0.604 		c1.012,0.804,2.087,1.671,3.252,2.606c0.52,0.424,1.013,0.826,1.574,1.263c1.603,1.311,3.288,2.691,5.091,4.195 		c0.297,0.25,0.617,0.521,0.922,0.771c1.588,1.339,3.253,2.732,4.966,4.195c0.603,0.514,1.199,1.026,1.817,1.554 		c1.789,1.546,3.627,3.148,5.52,4.813c0.333,0.299,0.652,0.569,0.991,0.868c2.158,1.913,4.37,3.917,6.603,5.964 		c0.603,0.548,1.213,1.109,1.817,1.678c1.83,1.692,3.669,3.419,5.528,5.18c0.54,0.521,1.074,1.034,1.629,1.562 		c2.289,2.205,4.571,4.452,6.831,6.734c0.479,0.485,0.943,0.971,1.422,1.456c1.865,1.906,3.704,3.828,5.527,5.777 		c0.354,0.381,0.735,0.756,1.09,1.137h3.134c0.354-0.381,0.734-0.756,1.089-1.137c1.823-1.949,3.661-3.871,5.526-5.777 		c0.479-0.485,0.937-0.971,1.408-1.456c2.275-2.282,4.563-4.536,6.853-6.749c0.541-0.513,1.068-1.012,1.601-1.525 		c1.859-1.782,3.725-3.522,5.576-5.235C273.689,448.2,274.272,447.659,274.854,447.117 M449.226,165.037 		c-1.131,0.597-2.185,1.138-3.26,1.692c-0.896,0.459-1.817,0.95-2.663,1.381c-1.096,0.555-2.08,1.04-3.107,1.54 		c-0.728,0.366-1.512,0.762-2.204,1.095c-1.354,0.652-2.608,1.235-3.829,1.81c-1.109,0.513-2.143,0.978-3.148,1.422 		c-0.631,0.285-1.311,0.589-1.907,0.846c-0.735,0.312-1.387,0.575-2.066,0.86c-0.555,0.236-1.138,0.472-1.65,0.686 		c-0.639,0.25-1.2,0.458-1.783,0.68c-0.5,0.194-1.019,0.395-1.49,0.562c-0.541,0.201-1.027,0.367-1.533,0.541 		c-0.36,0.118-0.742,0.263-1.082,0.375l35.758,51.091v-67.826c-1.103,0.61-2.108,1.137-3.162,1.705 		C451.146,164.011,450.148,164.552,449.226,165.037 M419.501,321.231c0.34,0.11,0.743,0.264,1.11,0.381 		c0.423,0.153,0.832,0.292,1.283,0.451c0.562,0.208,1.179,0.443,1.782,0.673c0.472,0.18,0.929,0.354,1.428,0.547 		c0.645,0.257,1.346,0.549,2.039,0.84c0.548,0.222,1.068,0.432,1.645,0.687c0.734,0.313,1.539,0.673,2.329,1.026 		c0.61,0.271,1.187,0.514,1.839,0.812c0.817,0.374,1.72,0.797,2.6,1.221c0.694,0.332,1.374,0.631,2.102,0.991 		c0.916,0.445,1.908,0.943,2.886,1.422c0.783,0.389,1.539,0.749,2.357,1.172c1.013,0.514,2.129,1.09,3.19,1.651 		c0.895,0.45,1.74,0.881,2.663,1.373c1.138,0.604,2.386,1.275,3.578,1.92c0.972,0.521,1.88,0.999,2.886,1.555 		c0.014,0.007,0.021,0.013,0.041,0.021V270.14l-9.612,13.731L419.501,321.231z M51.612,333.756c1.554-0.825,3.1-1.63,4.543-2.351 		c0.534-0.271,1.006-0.5,1.519-0.756c1.269-0.632,2.531-1.256,3.697-1.824c0.582-0.284,1.109-0.521,1.671-0.798 		c1.033-0.479,2.066-0.971,3.024-1.407c0.547-0.25,1.04-0.458,1.567-0.701c0.881-0.388,1.761-0.776,2.572-1.13 		c0.527-0.229,1.013-0.416,1.512-0.624c0.736-0.306,1.471-0.617,2.157-0.888c0.479-0.194,0.923-0.354,1.38-0.534 		c0.624-0.236,1.242-0.472,1.81-0.68c0.451-0.159,0.868-0.298,1.291-0.451c0.353-0.117,0.762-0.271,1.095-0.381l-33.594-48.006 		l-2.171-3.093v67.84c0.063-0.021,0.105-0.049,0.16-0.083c0.188-0.098,0.354-0.181,0.541-0.285c2.059-1.123,4.043-2.19,5.923-3.183 		C50.766,334.18,51.162,333.978,51.612,333.756 M78.292,178.116c-0.472-0.151-0.922-0.311-1.436-0.498 		c-0.499-0.181-1.068-0.402-1.615-0.604c-0.542-0.214-1.061-0.409-1.651-0.638c-0.561-0.221-1.192-0.492-1.797-0.742 		c-0.637-0.264-1.241-0.512-1.941-0.811c-0.687-0.29-1.457-0.638-2.184-0.964c-0.673-0.305-1.305-0.568-2.019-0.901 		c-1.477-0.68-3.037-1.415-4.687-2.22c-0.68-0.326-1.437-0.707-2.15-1.054c-1.035-0.513-2.047-1.012-3.156-1.574 		c-0.84-0.431-1.776-0.915-2.656-1.381c-1.083-0.554-2.137-1.095-3.28-1.692c-0.902-0.485-1.88-1.019-2.823-1.525 		c-1.068-0.576-2.088-1.104-3.212-1.72v67.826l35.765-51.091C79.09,178.409,78.673,178.256,78.292,178.116 M122.933,249.875 		l-16.817-32.054l-16.507-31.423l-18.932,27.053l-25.5,36.424l22.892,32.699l21.54,30.778l17.332-33.004L122.933,249.875z 		 M155.843,29.129c-8.166,2.383-17.592,5.83-27.621,10.906c-16.636,8.419-29.136,18.386-37.877,26.616 		c26.689,1.961,53.461,3.278,80.318,3.941c0.022,0,0.249,0.005,0.271,0.006C165.904,56.775,160.874,42.952,155.843,29.129 		 M45.577,145.579c0,0,26.712,14.678,37.67,17.819c-0.279-9.792-2.39-85.922-2.39-85.922S54.947,105.484,45.577,145.579 		 M95.938,163.085l67.825-16.713l9.556-62.59c-26.591-1.855-53.182-2.764-79.774-4.619C93.545,93.261,95.938,163.085,95.938,163.085 		 M325.606,74.569c0.023-0.001,54.838-4.112,81.518-6.188c-8.775-8.192-22.265-19.05-38.937-27.397 		c-10.051-5.032-19.492-8.439-27.669-10.786C335.549,44.988,330.578,59.778,325.606,74.569 M405.479,80.612 		c-26.268,1.972-53.481,4.891-79.749,6.863l10.773,62.549l67.896,17.364C404.4,167.388,405.54,94.709,405.479,80.612 		 M417.605,77.932c0,0-1.781,76.138-2.018,85.932c10.943-3.189,37.593-17.983,37.593-17.983 		C443.637,105.827,417.605,77.932,417.605,77.932 M343.092,466.66c8.223-2.4,17.715-5.872,27.813-10.982 		c16.752-8.478,29.339-18.515,38.141-26.801c-26.874-1.975-53.833-3.301-80.877-3.969c-0.022,0-0.251-0.006-0.272-0.007 		C332.962,438.821,338.026,452.74,343.092,466.66 M454.126,349.399c0,0-26.898-14.78-37.932-17.943 		c0.28,9.86,2.406,86.52,2.406,86.52S444.69,389.773,454.126,349.399 M403.414,331.771l-68.297,16.83l-9.623,63.026 		c26.776,1.867,53.553,2.782,80.329,4.65C405.823,402.081,403.414,331.771,403.414,331.771 M174.037,422.795 		c-0.022,0.001-55.219,4.14-82.084,6.231c8.838,8.248,22.42,19.183,39.209,27.588c10.12,5.066,19.628,8.497,27.861,10.861 		L174.037,422.795z M93.61,416.71c26.451-1.986,53.853-4.925,80.304-6.911l-10.848-62.984l-68.37-17.485 		C94.696,329.329,93.548,402.515,93.61,416.71 M81.399,419.408c0,0,1.793-76.668,2.032-86.529 		c-11.02,3.211-37.854,18.107-37.854,18.107C55.187,391.319,81.399,419.408,81.399,419.408"></path> </g> </svg>