<svg version="1.1" id="Layer_1" xmlns="http://www.w3.org/2000/svg" xmlns:xlink="http://www.w3.org/1999/xlink" x="0px" y="0px" width="500px" height="500px" viewBox="0 0 500 500" enable-background="new 0 0 500 500" xml:space="preserve"> <path fill="#2C3C5B" d="M310.084,98.199l24.318,24.318v254.967l-24.318,24.318H182.12l-24.318-24.318V122.517l24.318-24.318H310.084 	z M315.055,86.199H177.15l-31.348,31.347v264.908l31.348,31.348h137.905l31.348-31.348V117.546L315.055,86.199z"></path> <path fill="#2C3C5B" d="M327.044,74.79l31.607,29.091v292.237l-31.607,29.092H165.161l-31.608-29.092V103.881l31.608-29.091H327.044 	z M331.726,62.79H160.479l-38.926,35.827v302.766l38.926,35.827h171.247l38.926-35.827V98.617L331.726,62.79z"></path> <path fill="#2C3C5B" d="M327.044,74.79l31.607,29.091v292.237l-31.607,29.092H165.161l-31.608-29.092V103.881l31.608-29.091H327.044 	z M331.726,62.79H160.479l-38.926,35.827v302.766l38.926,35.827h171.247l38.926-35.827V98.617L331.726,62.79z"></path> <path fill="#2C3C5B" d="M342.368,51.381l38.577,33.753v329.732l-38.577,33.753H148.721l-38.577-33.753V85.134l38.577-33.753H342.368 	z M346.877,39.381H144.212L98.144,79.688v340.624l46.068,40.308h202.665l46.068-40.308V79.688L346.877,39.381z"></path> <path fill="#2C3C5B" d="M359.362,28.25l45.829,38.34v366.82l-45.829,38.34h-226.52l-45.83-38.34V66.59l45.83-38.34H359.362z 	 M363.72,16.25H128.485L75.013,60.984v378.033l53.472,44.733H363.72l53.472-44.733V60.984L363.72,16.25z"></path> <rect x="110.996" y="45.81" transform="matrix(0.6494 -0.7604 0.7604 0.6494 -28.9851 121.239)" fill="#2C3C5B" width="12" height="92.489"></rect> <rect x="150.166" y="15.422" transform="matrix(0.8225 -0.5688 0.5688 0.8225 -6.1796 99.4122)" fill="#2C3C5B" width="12.001" height="88.367"></rect> <rect x="330.346" y="12.951" transform="matrix(0.8047 0.5937 -0.5937 0.8047 100.3935 -188.2856)" fill="#2C3C5B" width="12" height="90.96"></rect> <rect x="368.997" y="46.329" transform="matrix(0.6258 0.78 -0.78 0.6258 212.5891 -257.8191)" fill="#2C3C5B" width="12" height="92.648"></rect> <rect x="111.314" y="359.165" transform="matrix(0.6494 0.7605 -0.7605 0.6494 350.4867 53.4169)" fill="#2C3C5B" width="12.001" height="95.265"></rect> <rect x="148.899" y="395.706" transform="matrix(0.8225 0.5688 -0.5688 0.8225 278.5187 -9.7615)" fill="#2C3C5B" width="12" height="91.293"></rect> <rect x="331.426" y="397.216" transform="matrix(0.8047 -0.5937 0.5937 0.8047 -196.6108 286.71)" fill="#2C3C5B" width="12" height="89.88"></rect> <rect x="368.126" y="358.576" transform="matrix(0.6258 -0.78 0.78 0.6258 -176.6252 444.1776)" fill="#2C3C5B" width="13" height="95.196"></rect> </svg>