<svg version="1.1" id="marquise" xmlns="http://www.w3.org/2000/svg" xmlns:xlink="http://www.w3.org/1999/xlink" x="0px" y="0px" width="500px" height="500px" viewBox="0 0 500 500" enable-background="new 0 0 500 500" xml:space="preserve"> <g> 	<defs> 		<rect id="SVGID_1_" width="500" height="500"></rect> 	</defs> 	<clipPath id="SVGID_2_"> 		<use xlink:href="#SVGID_1_" overflow="visible"></use> 	</clipPath> 	<path clip-path="url(#SVGID_2_)" fill="none" stroke="#2C3C5B" stroke-width="12" stroke-miterlimit="10" d="M243.609,25.173 		c0,0,96.527,84.31,103.036,209.042c0,0,19.062,119.729-103.036,240.612c-8.375-7.24-100.436-89.396-103.718-224.503 		C139.891,250.324,133.984,127.192,243.609,25.173z"></path> 	<polyline clip-path="url(#SVGID_2_)" fill="none" stroke="#2C3C5B" stroke-width="12" stroke-miterlimit="10" points=" 		241.64,27.024 222.632,84.46 214.068,141.437 192.734,249.556 179.934,306.472 174.868,381.665 214.238,405.79 243.61,467.686  		273.364,406.084 	"></polyline> 	<polyline clip-path="url(#SVGID_2_)" fill="none" stroke="#2C3C5B" stroke-width="12" stroke-miterlimit="10" points=" 		283.635,70.207 243.609,104.203 214.069,141.437 179.934,191.188 140.841,248.18 178.253,306.472 217.761,355.676 243.609,390.132  		273.315,413.978 283.635,426.953 	"></polyline> 	<polyline clip-path="url(#SVGID_2_)" fill="none" stroke="#2C3C5B" stroke-width="12" stroke-miterlimit="10" points=" 		263.593,82.773 308.62,109.579 308.62,191.188 294.101,250.682 269.576,356.254 270.344,410.016 312.864,379.354 308.046,306.472  		294.549,253.08 273.477,140.281 263.593,82.773 243.78,27.99 	"></polyline> 	<polyline clip-path="url(#SVGID_2_)" fill="none" stroke="#2C3C5B" stroke-width="12" stroke-miterlimit="10" points=" 		203.018,70.207 218.383,82.772 243.609,104.203 273.477,140.282 307.119,191.188 346.645,250.682 306.955,309.134 269.576,356.254  		243.609,390.132 211.844,414.386 203.149,429.865 	"></polyline> 	<polyline clip-path="url(#SVGID_2_)" fill="none" stroke="#2C3C5B" stroke-width="12" stroke-miterlimit="10" points=" 		220.205,86.075 177.953,110.83 179.605,194.683 193.392,251.333 218.225,357.697 213.247,411.732 	"></polyline> </g> </svg>