<svg version="1.1" id="Layer_1" xmlns="http://www.w3.org/2000/svg" xmlns:xlink="http://www.w3.org/1999/xlink" x="0px" y="0px" width="500px" height="500px" viewBox="0 0 500 500" enable-background="new 0 0 500 500" xml:space="preserve"> <g> 	<defs> 		<rect id="SVGID_1_" width="500" height="500"></rect> 	</defs> 	<clipPath id="SVGID_2_"> 		<use xlink:href="#SVGID_1_" overflow="visible"></use> 	</clipPath> 	<path clip-path="url(#SVGID_2_)" fill="#2C3B5B" d="M262.604,284.223c0-8.18-6.631-14.811-14.811-14.811 		s-14.811,6.631-14.811,14.811c0,8.181,6.631,14.813,14.811,14.813S262.604,292.403,262.604,284.223"></path> 	<path clip-path="url(#SVGID_2_)" fill="#2C3B5B" d="M289.962,189.375c-2.846-10.687-15.624-19.69-26.718-22.129 		c-11.094-2.44-21.897-3.137-33.629,0.871c-11.733,4.008-21.723,13.301-24.801,23.117c-3.079,9.816-0.261,17.308,9.932,18.412 		c10.192,1.104,13.591-10.02,14.462-12.197c0,0,0.407-1.569,2.672-4.705c2.265-3.137,7.899-9.468,21.084-6.389 		c13.185,3.078,11.5,16.321,11.5,16.321c-1.104,8.886-9.235,13.94-12.895,17.076c-3.658,3.137-14.984,10.048-17.89,19.457 		c-2.904,9.41,1.452,17.89,10.92,18.587c9.467,0.696,11.384-8.596,13.359-13.301c1.975-4.704,8.771-8.77,10.57-10.048 		c8.48-5.983,13.127-9.99,17.077-15.218C293.563,208.078,292.809,200.062,289.962,189.375"></path> 	<path clip-path="url(#SVGID_2_)" fill="#2C3B5B" d="M247.774,313.925c-0.014,0-0.027-0.001-0.041-0.001 		c0.02,0,0.04,0.001,0.06,0.001c0.03,0,0.06-0.002,0.089-0.002C247.846,313.923,247.81,313.925,247.774,313.925"></path> 	<path clip-path="url(#SVGID_2_)" fill="#2C3B5B" d="M245.032,313.873c-0.215-0.007-0.43-0.016-0.645-0.024 		C244.602,313.857,244.817,313.866,245.032,313.873"></path> 	<path clip-path="url(#SVGID_2_)" fill="#2C3B5B" d="M238.773,313.425c-0.086-0.01-0.172-0.021-0.257-0.029 		C238.602,313.405,238.688,313.415,238.773,313.425"></path> 	<path clip-path="url(#SVGID_2_)" fill="#2C3B5B" d="M258.744,313.183c-0.146,0.02-0.291,0.042-0.438,0.062 		C258.453,313.225,258.598,313.202,258.744,313.183"></path> 	<path clip-path="url(#SVGID_2_)" fill="#2C3B5B" d="M251.606,313.832c-0.201,0.01-0.403,0.015-0.605,0.023 		C251.203,313.847,251.405,313.842,251.606,313.832"></path> 	<path clip-path="url(#SVGID_2_)" fill="#2C3B5B" d="M308.07,287.023c0.031-0.034,0.062-0.069,0.093-0.104 		C308.132,286.954,308.102,286.989,308.07,287.023"></path> 	<path clip-path="url(#SVGID_2_)" fill="#2C3B5B" d="M275.748,308.965c-4.521,1.663-9.229,2.931-14.087,3.77 		c0.08-0.014,0.162-0.022,0.243-0.037L248.71,343.92l-13.033-30.895c-4.662-0.698-9.193-1.794-13.559-3.25l26.592,66.436 		l26.828-67.165C275.608,309.021,275.678,308.991,275.748,308.965"></path> 	<path clip-path="url(#SVGID_2_)" fill="#2C3B5B" d="M311.983,282.322c0.008-0.009,0.015-0.019,0.021-0.028 		C311.998,282.304,311.991,282.313,311.983,282.322"></path> 	<path clip-path="url(#SVGID_2_)" fill="#2C3B5B" d="M255.283,313.575c-0.221,0.021-0.44,0.04-0.661,0.059 		C254.843,313.615,255.063,313.597,255.283,313.575"></path> 	<path clip-path="url(#SVGID_2_)" fill="#2C3B5B" d="M291.748,300.963c0.2-0.13,0.398-0.263,0.6-0.395 		C292.146,300.7,291.948,300.833,291.748,300.963"></path> 	<path clip-path="url(#SVGID_2_)" fill="#2C3B5B" d="M283.578,305.6c0.254-0.125,0.508-0.25,0.761-0.378 		C284.086,305.35,283.832,305.475,283.578,305.6"></path> 	<path clip-path="url(#SVGID_2_)" fill="#2C3B5B" d="M281.129,306.764c0.184-0.083,0.365-0.172,0.548-0.256 		C281.494,306.592,281.313,306.681,281.129,306.764"></path> 	<path clip-path="url(#SVGID_2_)" fill="#2C3B5B" d="M286.547,304.062c0.211-0.114,0.418-0.233,0.627-0.35 		C286.965,303.828,286.758,303.947,286.547,304.062"></path> 	<path clip-path="url(#SVGID_2_)" fill="#2C3B5B" d="M305.908,289.337c0.064-0.066,0.13-0.133,0.194-0.199 		C306.038,289.204,305.973,289.271,305.908,289.337"></path> 	<path clip-path="url(#SVGID_2_)" fill="#2C3B5B" d="M288.98,302.674c0.205-0.121,0.412-0.241,0.616-0.364 		C289.393,302.433,289.186,302.553,288.98,302.674"></path> 	<path clip-path="url(#SVGID_2_)" fill="#2C3B5B" d="M381.305,91.369H116.797l-85.739,95.538l216.436,201.96l217.033-201.881 		L381.305,91.369z M439.699,178.677H335.614l43.479-68.945L439.699,178.677z M365.564,105.136l-44.184,68.5l-56.936-68.5H365.564z 		 M233.903,105.136l-58.123,68.5l-44.555-68.5H233.903z M118.743,110.148l43.285,68.528H55.886L118.743,110.148z M248.71,369.647 		L55.904,191.428h113.649l3.976,8.952c5.405-12.325,13.784-23.051,24.235-31.259l50.946-60.501l57.091,67.712 		c7.223,7.408,13.036,16.192,17.014,25.925l4.793-10.829h112.092L248.71,369.647z"></path> 	<path clip-path="url(#SVGID_2_)" fill="#2C3B5B" d="M303.851,291.386c0.036-0.035,0.072-0.071,0.108-0.106 		C303.923,291.314,303.887,291.351,303.851,291.386"></path> 	<path clip-path="url(#SVGID_2_)" fill="#2C3B5B" d="M278,308.095c0.278-0.112,0.555-0.225,0.831-0.34 		C278.555,307.869,278.277,307.982,278,308.095"></path> 	<path clip-path="url(#SVGID_2_)" fill="#2C3B5B" d="M294.227,299.292c0.123-0.087,0.249-0.171,0.371-0.258 		C294.476,299.121,294.35,299.205,294.227,299.292"></path> 	<path clip-path="url(#SVGID_2_)" fill="#2C3B5B" d="M301.436,293.605c0.127-0.112,0.254-0.225,0.38-0.338 		C301.689,293.381,301.563,293.493,301.436,293.605"></path> 	<path clip-path="url(#SVGID_2_)" fill="#2C3B5B" d="M296.713,297.478c0.173-0.131,0.345-0.263,0.517-0.396 		C297.058,297.215,296.886,297.347,296.713,297.478"></path> 	<polyline clip-path="url(#SVGID_2_)" fill="#2C3B5B" points="299.341,295.402 299.348,295.396 299.341,295.402 	"></polyline> 	 		<circle clip-path="url(#SVGID_2_)" fill="none" stroke="#2C3B5B" stroke-width="13.101" stroke-miterlimit="10" cx="247.792" cy="232.185" r="87.481"></circle> </g> </svg>