<svg version="1.1" id="Layer_1" xmlns="http://www.w3.org/2000/svg" xmlns:xlink="http://www.w3.org/1999/xlink" x="0px" y="0px" width="500px" height="500px" viewBox="0 0 500 500" enable-background="new 0 0 500 500" xml:space="preserve"> <g> 	<defs> 		<rect id="SVGID_1_" width="500" height="500"></rect> 	</defs> 	<clipPath id="SVGID_2_"> 		<use xlink:href="#SVGID_1_" overflow="visible"></use> 	</clipPath> 	<path clip-path="url(#SVGID_2_)" fill="#2C3C5B" d="M251.053,483.826c0.09,0,0.17,0.011,0.261,0.011 		c0.096,0,0.191-0.011,0.282-0.011h0.054c22.945-0.08,44.698-8.054,64.203-22.227c0.182-0.08,0.384-0.102,0.549-0.214 		c0.208-0.133,0.33-0.346,0.511-0.506c18.329-13.588,34.606-32.688,47.965-55.873c0.058-0.059,0.128-0.08,0.182-0.139 		c0.367-0.479,0.617-1.018,0.798-1.598c11.095-19.622,20.092-42.126,26.479-66.66c0-0.031,0.016-0.048,0.016-0.069 		c6.961-26.78,10.823-55.952,10.823-86.515c0-30.542-3.862-59.726-10.823-86.497c0-0.031-0.021-0.064-0.021-0.09 		c-6.381-24.533-15.378-47.016-26.467-66.649c-0.182-0.558-0.437-1.107-0.804-1.587c-0.054-0.069-0.124-0.091-0.188-0.165 		c-13.348-23.17-29.625-42.265-47.953-55.836c-0.181-0.165-0.304-0.379-0.517-0.523c-0.17-0.111-0.373-0.127-0.554-0.223 		c-19.506-14.163-41.258-22.131-64.198-22.216h-0.054c-0.091,0-0.187-0.006-0.282-0.006c-0.091,0-0.171,0.006-0.261,0.006h-0.043 		c-22.962,0.074-44.725,8.053-64.236,22.237c-0.17,0.086-0.346,0.102-0.511,0.202c-0.186,0.134-0.299,0.331-0.464,0.48 		c-18.349,13.577-34.642,32.688-48.012,55.889c-0.052,0.064-0.127,0.097-0.181,0.155c-0.372,0.49-0.639,1.05-0.814,1.619 		c-10.877,19.255-19.745,41.258-26.095,65.243c-0.164,0.426-0.276,0.852-0.329,1.289c-6.978,26.823-10.861,56.055-10.861,86.671 		v0.01c0,30.621,3.883,59.857,10.861,86.676c0.053,0.447,0.165,0.863,0.329,1.283c6.35,23.996,15.218,45.978,26.095,65.243 		c0.175,0.591,0.442,1.14,0.814,1.63c0.054,0.059,0.129,0.08,0.181,0.139c13.375,23.201,29.669,42.328,48.018,55.911 		c0.165,0.154,0.277,0.346,0.458,0.468c0.159,0.102,0.336,0.123,0.501,0.192c19.521,14.194,41.284,22.179,64.246,22.248H251.053z 		 M195.574,455.782l22.343-35.686l25.407,53.29C226.46,471.901,210.375,465.77,195.574,455.782 M120.902,338.646l23.963-13.231 		l-6.573,59.96C131.358,371.051,125.504,355.37,120.902,338.646 M138.292,114.704l6.573,59.948l-23.963-13.225 		C125.504,144.702,131.358,129.021,138.292,114.704 M243.324,26.696l-25.407,53.269l-22.343-35.692 		C210.375,34.292,226.46,28.172,243.324,26.696 M307.086,44.284l-22.345,35.681l-25.406-53.269 		C276.198,28.182,292.284,34.303,307.086,44.284 M381.777,161.427l-23.969,13.225l6.566-59.948 		C371.306,129.021,377.17,144.691,381.777,161.427 M364.375,385.362l-6.566-59.948l23.969,13.242 		C377.17,355.37,371.306,371.051,364.375,385.362 M259.335,473.376l25.406-53.279l22.345,35.676 		C292.284,465.748,276.198,471.901,259.335,473.376 M168.681,268.471l18.855,66.979l-31.139-21.188L168.681,268.471z 		 M156.396,185.817l31.139-21.199l-18.855,66.984L156.396,185.817z M333.989,231.602l-18.861-66.995l31.154,21.21L333.989,231.602z 		 M346.282,314.262l-31.154,21.188l18.861-66.989L346.282,314.262z M200.165,344.228l-26.531-94.201l26.531-94.204l51.165-42.014 		l51.17,42.014l26.521,94.204l-26.521,94.201l-51.17,42.02L200.165,344.228z M260.32,391.76l35.75-29.364l-14.567,40.47 		L260.32,391.76z M339.156,250.026l14.753-54.947l38.377,54.947l-38.377,54.972L339.156,250.026z M260.32,108.312l21.183-11.116 		l14.567,40.47L260.32,108.312z M277.658,87.912l-26.329,13.811l-26.333-13.811l26.327-55.207L277.658,87.912z M242.344,108.312 		l-35.756,29.364l14.574-40.48L242.344,108.312z M163.502,250.026l-14.738,54.962l-38.37-54.962l38.37-54.947L163.502,250.026z 		 M242.344,391.76l-21.182,11.105l-14.574-40.47L242.344,391.76z M224.997,412.154l26.333-13.806l26.329,13.806l-26.335,55.224 		L224.997,412.154z M310.755,350.491l37.227-25.315l7.883,72.033l-64.391,6.866L310.755,350.491z M359.146,314.72l33.865-48.508 		c-0.996,21.816-3.963,42.776-8.666,62.431L359.146,314.72z M359.146,185.347l25.199-13.917c4.703,19.643,7.67,40.597,8.666,62.419 		L359.146,185.347z M347.981,174.897l-37.227-25.327l-19.281-53.562l64.391,6.85L347.981,174.897z M191.903,149.57l-37.211,25.316 		l-7.888-72.028l64.385-6.85L191.903,149.57z M143.529,185.347l-33.86,48.502c0.996-21.822,3.963-42.776,8.661-62.409 		L143.529,185.347z M143.529,314.72l-25.199,13.923c-4.698-19.654-7.665-40.624-8.661-62.431L143.529,314.72z M154.692,325.176 		l37.211,25.315l19.286,53.584l-64.385-6.866L154.692,325.176z M315.033,449.908l-22.446-35.82l59.405-6.333 		C341.248,424.751,328.77,439.021,315.033,449.908 M351.992,92.317l-59.405-6.322l22.44-35.831 		C328.77,61.052,341.244,75.315,351.992,92.317 M187.631,50.153l22.44,35.842l-59.405,6.322 		C161.416,75.305,173.899,61.041,187.631,50.153 M150.667,407.755l59.405,6.333l-22.44,35.831 		C173.895,439.021,161.416,424.762,150.667,407.755"></path> </g> </svg>