<svg version="1.1" id="Layer_1" xmlns="http://www.w3.org/2000/svg" xmlns:xlink="http://www.w3.org/1999/xlink" x="0px" y="0px" width="500px" height="500px" viewBox="0 0 500 500" enable-background="new 0 0 500 500" xml:space="preserve"> <g> 	<defs> 		<rect id="SVGID_1_" width="500" height="500"></rect> 	</defs> 	<clipPath id="SVGID_2_"> 		<use xlink:href="#SVGID_1_" overflow="visible"></use> 	</clipPath> 	<path clip-path="url(#SVGID_2_)" fill="#2C3C5B" d="M395.709,333.868c0.219-1.569,0.322-2.564,0.336-2.713 		c0.18-17.896-1.177-35.307-3.657-52.207c-0.039-0.226-0.039-0.459-0.104-0.679c-5.814-38.891-17.844-74.889-32.599-106.964 		c-0.207-1.137-0.634-2.23-1.409-3.095c-16.073-34.247-35.08-63.861-52.652-87.552c-0.206-0.446-0.336-0.911-0.659-1.311 		c-0.219-0.303-0.555-0.485-0.84-0.731c-28.49-38.071-52.704-60.268-53.298-60.805c-0.026-0.025-0.065-0.032-0.104-0.058 		c-0.206-0.187-0.466-0.29-0.712-0.446c-0.167-0.122-0.297-0.297-0.491-0.393c-0.089-0.058-0.219-0.052-0.336-0.097 		c-0.141-0.078-0.309-0.175-0.477-0.24c-0.297-0.097-0.594-0.103-0.904-0.161c-0.298-0.058-0.595-0.149-0.905-0.161 		c-0.155-0.007-0.298-0.007-0.452,0c-0.323,0.012-0.607,0.103-0.918,0.161c-0.297,0.058-0.607,0.064-0.904,0.168 		c-0.168,0.058-0.311,0.155-0.479,0.233c-0.103,0.045-0.219,0.039-0.335,0.097c-0.194,0.096-0.298,0.271-0.478,0.393 		c-0.246,0.156-0.504,0.259-0.724,0.446c-0.026,0.026-0.065,0.033-0.091,0.058c-0.594,0.537-24.769,22.696-53.221,60.741 		c-0.309,0.265-0.671,0.459-0.917,0.795c-0.349,0.439-0.504,0.936-0.711,1.421c-17.481,23.619-36.423,53.118-52.419,87.229 		l-0.142,0.148c-0.866,0.969-1.357,2.197-1.512,3.489c-14.64,31.901-26.579,67.699-32.393,106.377 		c-0.233,0.639-0.323,1.318-0.335,2.021c-2.404,16.727-3.722,33.963-3.54,51.658c0.012,0.104,0.103,0.911,0.283,2.248 		c-0.543,1.783-0.232,3.676,0.801,5.239c1.68,10.059,5.751,29.137,14.459,50.243c0.038,0.226-0.013,0.445,0.052,0.671 		c0.219,0.86,0.646,1.577,1.162,2.224c6.732,15.634,16.061,32.127,28.879,46.773c0.465,1.008,1.24,1.776,2.119,2.409 		c11.15,12.19,24.898,22.87,41.683,30.461c0.206,0.123,0.361,0.311,0.567,0.413c0.22,0.091,0.428,0.072,0.647,0.143 		c15.892,6.978,34.473,11.234,56.308,11.234l2.288-0.02l2.481,0.02h0.013c21.849,0,40.415-4.257,56.309-11.24 		c0.22-0.071,0.426-0.046,0.633-0.137c0.22-0.096,0.362-0.284,0.556-0.405c16.797-7.593,30.52-18.265,41.683-30.456 		c0.893-0.633,1.667-1.42,2.132-2.435c12.792-14.62,22.121-31.081,28.827-46.71c0.529-0.665,0.981-1.396,1.228-2.268 		c0.051-0.257,0.012-0.497,0.038-0.756c8.618-20.887,12.688-39.803,14.406-50.087C395.98,337.667,396.29,335.709,395.709,333.868 		 M370.577,380.875l-11.228-3.088l18.916-20.39C376.379,364.452,373.872,372.449,370.577,380.875 M306.438,458.038l-6.409-14.349 		l28.528-0.607C321.969,448.729,314.644,453.813,306.438,458.038 M164.051,443.069l29.265,0.62l-6.538,14.606 		C178.315,454.013,170.782,448.832,164.051,443.069 M114.654,356.932l19.356,20.855l-11.694,3.217 		C118.982,372.327,116.489,364.122,114.654,356.932 M324.256,130.694l-30.958-34.123l5.439-4.31 		C307.136,103.793,315.806,116.624,324.256,130.694 M237.325,124.479l-42.174,45.54l17.611-63.758L237.325,124.479z 		 M246.679,416.109l-61.245-22.302l-19.988-57.723l22.714-140.114l58.519-63.171l58.518,63.171l22.702,140.114l-19.988,57.723 		L246.679,416.109z M159.451,356.88l10.129,29.279l-16.474-8.302L159.451,356.88z M333.895,356.88l6.345,20.978l-16.475,8.309 		L333.895,356.88z M336.687,312.361l-13.697-84.463l26.863,49.047L336.687,312.361z M316.84,190.68l-19.679-71.24l50.327,55.469 		l2.222,75.782L316.84,190.68z M280.583,106.261l17.611,63.758l-42.187-45.54L280.583,106.261z M246.679,115.803l-29.511-21.875 		l29.511-57.724l29.499,57.724L246.679,115.803z M156.66,312.355l-13.166-35.41l26.861-49.041L156.66,312.355z M152.46,336.859 		l-9.665,32.012l-31.604-34.079l24.317-43.518L152.46,336.859z M176.08,403.486l15.828,27.599l-37.381-0.795l-2.106-38.724 		L176.08,403.486z M205.707,430.013l-11.228-19.55l33.246,12.107L205.707,430.013z M246.679,429.418l31.721,10.725l-31.721,28.839 		l-31.733-28.839L246.679,429.418z M265.621,422.57l33.245-12.107l-11.228,19.557L265.621,422.57z M317.266,403.479l23.671-11.913 		l-2.118,38.724l-37.394,0.795L317.266,403.479z M350.55,368.871l-9.664-32.012l16.951-45.591l24.317,43.523L350.55,368.871z 		 M360.874,206.256c7.765,20.931,14.084,43.213,18.063,66.613l-16.177-2.009L360.874,206.256z M286.242,86.182L272.134,58.59 		c5.879,6.854,12.352,14.775,19.11,23.631L286.242,86.182z M207.103,86.182l-4.988-3.947c6.745-8.851,13.205-16.766,19.071-23.62 		L207.103,86.182z M176.506,190.68l-32.858,60.011l2.21-75.782l50.326-55.469L176.506,190.68z M130.585,270.86l-16.086,1.995 		c3.979-23.302,10.259-45.487,17.973-66.335L130.585,270.86z M112.574,285.764l12.585-1.563l-14.885,26.616 		C110.739,302.354,111.488,293.988,112.574,285.764 M139.824,389.215l1.55,28.458c-5.646-8.179-10.311-16.654-14.148-24.995 		L139.824,389.215z M205.036,448.043l24.549,22.335c-11.5-1.151-21.927-3.612-31.333-7.127L205.036,448.043z M288.309,448.043 		l6.721,15.027c-9.406,3.592-19.796,6.106-31.242,7.281L288.309,448.043z M353.521,389.215l12.068,3.314 		c-3.734,7.991-8.205,16.106-13.528,23.962L353.521,389.215z M368.187,284.201l12.689,1.576c1.058,8.256,1.807,16.649,2.261,25.15 		L368.187,284.201z M194.621,92.28l5.44,4.291L169.27,130.5C177.682,116.514,186.287,103.747,194.621,92.28"></path> </g> </svg>