<svg version="1.1" id="Layer_1" xmlns="http://www.w3.org/2000/svg" xmlns:xlink="http://www.w3.org/1999/xlink" x="0px" y="0px" width="500px" height="500px" viewBox="0 0 500 500" enable-background="new 0 0 500 500" xml:space="preserve"> <path fill="#2C3C5B" d="M477.708,477.03H26.301V26.63h451.407V477.03z M101.526,62.095l298.783-0.015l53.414-23.499H50.288 	L101.526,62.095z M391.302,82.096l-24.886,53.343l51.508-24.799l26.791-52.043L391.302,82.096z M363.414,151.455l19.86,97.019 	l31.647-121.821L363.414,151.455z M426.932,126.652l-31.647,121.82l31.413,126.438L426.932,126.652z M438.94,102.632l-0.233,296.298 	l27.025,54.14V50.589L438.94,102.632z M351.406,139.442L376.29,86.1l-124.952,33.481L351.406,139.442z M251.489,107.57 	L376.29,74.089l-250.745,0.014L251.489,107.57z M125.545,86.113l24.884,53.343l100.909-19.876L125.545,86.113z M251.338,131.589 	l-100.904,19.862l-19.481,100.979l19.785,99.229l100.494,19.609l99.944-19.838l20.089-102.958l-19.861-97.022L251.338,131.589z 	 M363.18,351.474l51.509,23.438l-31.414-126.438L363.18,351.474z M367.184,366.443l24.899,53.017l53.633,24.604l-27.024-54.141 	L367.184,366.443z M376.07,416.457l-24.895-53.016l-99.944,19.838L376.07,416.457z M376.02,428.467l-124.878-33.178l-124.757,33.596 	L376.02,428.467z M50.288,465.08h403.435l-53.633-24.604l-297.724,0.418L50.288,465.08z M150.738,363.67l-24.353,53.206 	l124.757-33.597L150.738,363.67z M135.726,366.672l-52.202,24.362l-24.229,53.029l52.078-24.186L135.726,366.672z M82.949,111.161 	l51.467,24.293l-24.884-53.344L58.294,58.597L82.949,111.161z M38.278,453.07l24.229-53.029l0.426-296.887L38.278,50.589V453.07z 	 M118.944,252.431l19.475-100.964L86.703,127.12L118.944,252.431z M74.943,127.173l-0.426,248.848l32.417-123.515L74.943,127.173z 	 M86.526,376.021l52.202-24.351l-19.784-99.24L86.526,376.021z"></path> </svg>