<svg version="1.1" id="Layer_1" xmlns="http://www.w3.org/2000/svg" xmlns:xlink="http://www.w3.org/1999/xlink" x="0px" y="0px" width="500px" height="500px" viewBox="0 0 500 500" enable-background="new 0 0 500 500" xml:space="preserve"> <g> 	<defs> 		<rect id="SVGID_1_" width="500" height="500"></rect> 	</defs> 	<clipPath id="SVGID_2_"> 		<use xlink:href="#SVGID_1_" overflow="visible"></use> 	</clipPath> 	<path clip-path="url(#SVGID_2_)" fill="#2C3C5B" d="M163.526,483.887c0.016,0,0.023,0.007,0.03,0.007H336.14 		c0.014,0,0.014-0.007,0.021-0.007c0.911,0,1.792-0.199,2.629-0.479c0.177-0.057,0.355-0.112,0.525-0.187 		c0.726-0.299,1.413-0.666,1.983-1.17l110.173-97.399c1.184-1.051,1.857-2.42,1.857-3.851v-2.258V121.462v-4.534 		c0-1.449-0.688-2.842-1.91-3.893L341.24,17.899c-0.556-0.479-1.236-0.839-1.939-1.139c-0.171-0.068-0.341-0.111-0.511-0.173 		c-0.814-0.274-1.673-0.448-2.555-0.454c-0.037,0-0.066-0.019-0.096-0.019H163.556c-0.03,0-0.052,0.019-0.089,0.019 		c-0.88,0.006-1.732,0.18-2.554,0.447c-0.177,0.069-0.341,0.112-0.511,0.187c-0.71,0.293-1.384,0.653-1.955,1.132l-110.17,95.136 		c-1.223,1.051-1.904,2.444-1.904,3.893v4.534v257.082v2.258c0,1.431,0.659,2.8,1.844,3.851l110.179,97.399 		c0.57,0.504,1.259,0.871,1.984,1.17c0.177,0.074,0.356,0.13,0.54,0.187C161.75,483.688,162.623,483.887,163.526,483.887 		 M171.959,27.491h155.785l-5.82,25.988H177.771l-2.997-13.417L171.959,27.491z M148.92,85.106l12.6-9.871l-0.963,4.703 		l-4.56,22.224l-39.475,8.335L148.92,85.106z M369.462,203.673l-10.72-41.935l-12.061-47.186l51.772,10.935l-11.535,31.126 		L369.462,203.673z M130.233,203.673l-28.992-78.186l51.773-10.935L130.233,203.673z M328.551,97.579l-44.888-15.009l38.728-15.003 		l0.911,4.435L328.551,97.579z M177.304,67.566l38.721,15.003l-44.88,15.009l5.257-25.577L177.304,67.566z M343.698,102.163 		l-5.524-26.927l45,35.262L343.698,102.163z M296.813,64.868l-31.999,12.403h-29.939l-31.998-12.403H296.813z M138.495,227.367 		l16.88-66.076l12.889-50.438l66.41-22.206h30.339l66.409,22.212l11.031,43.148l18.753,73.36v45.269l-18.975,74.248l-10.81,42.26 		l-66.409,22.211h-30.339l-66.41-22.211l-12.718-49.773l-17.051-66.734V227.367z M126.939,379.938l-25.698-5.418l28.992-78.186 		l22.781,89.114L126.939,379.938z M322.391,432.429l-38.728-14.997l44.888-15.016l-5.249,25.577L322.391,432.429z M171.146,402.416 		l40.378,13.505l4.502,1.511l-38.721,14.997l-0.902-4.436L171.146,402.416z M338.174,424.765l5.524-26.926l39.476-8.328 		L338.174,424.765z M398.454,374.52l-26.585,5.61l-25.188,5.318l22.78-89.114l16.836,45.381L398.454,374.52z M155.997,397.839 		l5.523,26.926l-44.998-35.254L155.997,397.839z M202.883,435.135l31.991-12.397h29.939l31.999,12.397H202.883z M375.223,272.374 		v-44.752l25.03-67.513v179.79L375.223,272.374z M124.48,227.622v44.752l-25.038,67.524V160.103L124.48,227.622z M177.771,446.517 		h144.153l5.82,25.988H171.959l2.858-12.783L177.771,446.517z M340.507,465.924l-3.234-14.499l-1.933-8.621l74.76-58.574h22.826 		L340.507,465.924z M414.268,127.155h25.039v245.698h-25.039V127.155z M435.346,115.771H410.1l-74.76-58.573l0.666-2.98 		l4.546-20.302L435.346,115.771z M159.151,33.917l3.42,15.32l1.785,7.962l-74.753,58.573H64.342L159.151,33.917z M85.42,372.854 		H60.389V127.155H85.42V372.854z M66.778,384.229h22.825l19.278,15.102l55.475,43.473l-0.63,2.805l-4.538,20.315L66.778,384.229z"></path> </g> </svg>