<svg version="1.1" id="Layer_1" xmlns="http://www.w3.org/2000/svg" xmlns:xlink="http://www.w3.org/1999/xlink" x="0px" y="0px" width="500px" height="500px" viewBox="0 0 500 500" enable-background="new 0 0 500 500" xml:space="preserve">
<g>
	<defs>
		<rect id="SVGID_1_" width="500" height="500"></rect>
	</defs>
	<clipPath id="SVGID_2_">
		<use xlink:href="#SVGID_1_" overflow="visible"></use>
	</clipPath>
	<path clip-path="url(#SVGID_2_)" fill="#2C3C5B" d="M477,250.14c0,125.374-101.637,227.01-227.011,227.01
		c-125.375,0-227.011-101.636-227.011-227.01c0-125.375,101.636-227.011,227.011-227.011C375.363,23.128,477,124.764,477,250.14
		 M270.533,371.098l32.716,14.377l18.021-41.664l-57.775,24.221 M405.633,391.695l-16.303-76.339l-53.191,22.215l-21.368,49.342
		L405.633,391.695z M418.186,402.273l-105.726-4.245l22.491,50.908c23.786-9.885,51.423-28.065,75.775-54.306
		c24.353-26.239,37.398-58.011,37.398-58.011l-47.368-19.541L418.186,402.273z M194.162,398.532c0,0-17.872,41.411-23.019,52.919
		c12.845,4.912,40.264,14.931,80.703,14.828c40.439-0.102,72.702-13.207,72.702-13.207l-20.836-47.35l-49.772,70.755
		L194.162,398.532z M98.195,418.839l7.736-103.335c0,0-38.637,15.849-53.599,22.241c5.323,13.145,19.937,40.7,47.675,68.036
		c27.737,27.336,61.023,41.405,61.023,41.405l20.978-48.551L98.195,418.839z M109.314,405.779l77.355-19.175l-21.795-49.929
		l-47.812-21.049L109.314,405.779z M197.512,383.664l37.908-15.899l-55.528-24.462L197.512,383.664z M253.509,459.402l44.367-64.132
		l-48.435-21.326l-45.349,19.006L253.509,459.402z M118.813,304.265l39.502,17.388l-23.699-54.247L118.813,304.265z
		 M106.166,202.211l-65.832,47.727l69.045,48.087l19.153-44.572L106.166,202.211z M140.637,253.406l32.683,74.858l76.225,33.58
		l78.15-32.775l34.931-80.679l-31.188-73.583l-84.773-34.635l-71.016,31.703L140.637,253.406z M342.495,322.865l43.9-18.417
		l-17.782-41.921L342.495,322.865z M374.718,248.434l21.144,49.885l63.986-46.419l-65.402-49.014L374.718,248.434z M134.549,239.44
		l26.404-61.508l-45.345,18.119L134.549,239.44z M101.085,102.377l12.719,82.435l53.354-21.332l19.653-45.789L101.085,102.377z
		 M197.819,120.212l-15.702,36.594l50.307-22.448L197.819,120.212z M368.728,234.307l16.276-37.603l-38.962-15.919L368.728,234.307z
		 M325.283,160.293l-19.681-46.415l-44.9,20.037L325.283,160.293z M339.783,166.239l47.669,19.455l15.223-80.221l-85.846,6.414
		L339.783,166.239z M246.476,128.1l52.943-23.635L251.31,40.906l-47.225,69.875L246.476,128.1z M89.144,90.061l95.832,16.3
		c0,0-19.458-43.361-24.005-53.24c-16.117,8.171-33.934,15.617-64.079,44.442c-30.145,28.825-45.409,66.91-45.409,66.91
		l51.257,21.465L89.144,90.061z M250.754,23.797l56.176,72.412c0,0,15.111-38.657,18.823-48.554
		c-1.771-0.672-29.321-13.399-75.296-13.655c-45.974-0.256-79.244,14.801-79.244,14.801l24.6,54.535L250.754,23.797z
		 M414.799,94.409l-16.19,91.146l50.775-18.956c0,0-11.135-31.832-43.202-65.85c-32.067-34.018-70.129-48.932-70.129-48.932
		l-18.974,48.96L414.799,94.409z M403.131,195.716l73.5,56.293l-72.963,54.244l48.648,20.055c0,0,14.271-36.277,13.823-72.725
		c-0.448-36.448-5.224-55.991-12.729-76.708C439.771,182.077,403.131,195.716,403.131,195.716 M48.061,327.406l52.846-21.914
		l-77.338-55.271l73.323-54.671c0,0-40.974-17.19-49.545-20.787c0,0-14.156,31.815-13.505,77.671
		C34.493,298.29,48.061,327.406,48.061,327.406"></path>
</g>
</svg>